<?xml version="1.0" standalone="no"?>
<!DOCTYPE svg PUBLIC "-//W3C//DTD SVG 1.1//EN" "http://www.w3.org/Graphics/SVG/1.1/DTD/svg11.dtd">
<svg xmlns="http://www.w3.org/2000/svg">
<defs >
<font id="Cabin" horiz-adv-x="989" ><font-face
    font-family="Cabin"
    units-per-em="2000"
    panose-1="0 0 0 0 0 0 0 0 0 0"
    ascent="1930"
    descent="-500"
    alphabetic="0" />
<glyph unicode=" " horiz-adv-x="406" />
<glyph unicode="!" horiz-adv-x="380" d="M66 344L74 396L212 1400H460L242 396L234 344H66ZM-20 0L18 212H234L196 0H-20Z" />
<glyph unicode="&quot;" horiz-adv-x="576" d="M76 980L116 1400H316L204 980H76ZM376 980L416 1400H616L504 980H376Z" />
<glyph unicode="#" horiz-adv-x="1290" d="M20 -22L762 1400H914L174 -22H20ZM402 -22L1144 1400H1296L556 -22H402ZM246 844L330 1014H1298L1214 844H246ZM40 432L148 614H1118L1008 432H40Z" />
<glyph unicode="$" horiz-adv-x="1096" d="M494 68L452 -288H296L378 68H494ZM646 1346L686 1688H842L762 1346H646ZM376 -28Q238 -28 135 0T-20 62L44 284Q101 235 192 190T406 144Q492 144 566 169T685 248T730 384Q730 458 694 504T597 581T462 642Q407 665
348 690T238 751T156 840T124 970Q124 1037 152 1116T243 1266T408 1382T656 1428Q781 1428 878 1398T1036 1332L982 1130Q901 1192 822 1224T642 1256Q576 1256 505 1232T384 1157T334 1026Q334 942 395 900T562 816Q630 790 697 762T820 692T910 587T944 426Q944
347 916 267T823 120T649 13T376 -28Z" />
<glyph unicode="%" horiz-adv-x="1718" d="M581 628Q445 628 378 714T311 934Q312 1061 363 1174T506 1357T721 1428Q850 1428 922 1348T995 1136Q995 1039 966 949T882 786T751 671T581 628ZM605 772Q681 772 730 826T804 960T829 1120Q829 1203 794 1243T697
1284Q621 1284 572 1230T499 1096T475 940Q475 859 508 816T605 772ZM230 0L1284 1400H1452L400 0H230ZM1204 -28Q1068 -28 1001 58T934 278Q935 405 986 518T1129 701T1344 772Q1473 772 1545 692T1618 480Q1618 383 1589 293T1505 130T1374 15T1204 -28ZM1228
116Q1304 116 1353 170T1427 304T1452 464Q1452 547 1417 587T1320 628Q1244 628 1195 574T1122 440T1098 284Q1098 203 1131 160T1228 116Z" />
<glyph unicode="&amp;" horiz-adv-x="1120" d="M802 0L738 106L685 197L345 699V699Q296 793 272 876T248 1026Q248 1113 283 1183T378 1303T512 1379T664 1406Q784 1406 839 1348T894 1196Q894 1117 861 1046T771 912T648 798T515 704L453 798Q534 868 597 919T696
1024T732 1148Q732 1210 704 1239T622 1268Q546 1268 482 1207T418 1026Q418 983 431 922T479 794L519 726L783 308L857 213L996 0H802ZM855 185L768 314Q788 337 807 387T844 498T874 614T894 702H1062Q1050 642 1026 553T960 367T855 185ZM390 -46Q259 -46 179
-6T61 103T24 262Q24 354 60 434T168 591T345 744L406 635Q326 579 267 487T208 290Q208 234 229 189T297 117T420 90Q509 90 572 126T687 222L761 105Q667 20 581 -13T390 -46Z" />
<glyph unicode="&apos;" horiz-adv-x="276" d="M76 980L116 1400H316L204 980H76Z" />
<glyph unicode="(" horiz-adv-x="516" d="M252 -272Q192 -155 152 -12T112 312Q112 641 226 943T548 1500H722Q586 1323 490 1129T343 727T292 306Q292 132 326 -10T410 -272H252Z" />
<glyph unicode=")" horiz-adv-x="516" d="M264 1500Q324 1383 364 1240T404 916Q404 587 290 285T-32 -272H-206Q-70 -95 26 99T173 501T224 922Q224 1096 190 1238T106 1500H264Z" />
<glyph unicode="*" horiz-adv-x="810" d="M394 1119L144 1282L212 1374L548 1117H552L802 952L734 860L398 1117L394 1119ZM462 734H348L436 1139L484 1500H598L517 1129L462 734ZM411 1122L822 1378L862 1278L541 1109L537 1113L124 856L84 956L407 1128L411 1122Z" />
<glyph unicode="+" horiz-adv-x="848" d="M236 220L356 904H516L396 220H236ZM20 486L48 638H732L704 486H20Z" />
<glyph unicode="," horiz-adv-x="374" d="M54 -214H-60L50 0H-20L18 212H234L200 20L54 -214Z" />
<glyph unicode="-" horiz-adv-x="792" d="M96 536L126 708H684L654 536H96Z" />
<glyph unicode="." horiz-adv-x="372" d="M-20 0L16 212H232L196 0H-20Z" />
<glyph unicode="/" horiz-adv-x="782" d="M-100 -170L704 1400H902L98 -170H-100Z" />
<glyph unicode="0" horiz-adv-x="1350" d="M526 -28Q377 -28 275 40T121 231T68 518Q68 693 118 856T263 1148T489 1352T782 1428Q926 1428 1029 1364T1187 1181T1242 900Q1242 728 1191 563T1045 264T819 51T526 -28ZM556 144Q676 144 767 209T919 384T1011 626T1042
894Q1042 1076 965 1166T752 1256Q631 1256 541 1192T390 1020T300 782T270 520Q270 339 342 242T556 144Z" />
<glyph unicode="1" horiz-adv-x="632" d="M132 0L347 1210L411 1185Q330 1123 275 1088T179 1034T102 1004L100 1182Q158 1200 220 1233T339 1310T434 1400H564L316 0H132Z" />
<glyph unicode="2" horiz-adv-x="976" d="M-60 2L402 582Q495 699 556 784T646 938T676 1078Q676 1156 633 1202T508 1248Q408 1248 317 1198T136 1070L148 1270Q225 1335 330 1381T550 1428Q714 1428 795 1340T876 1108Q876 1004 839 913T731 723T556 494L247
107L215 174H778L748 2H-60Z" />
<glyph unicode="3" horiz-adv-x="1026" d="M356 -28Q239 -28 135 6T-60 96L18 272Q104 214 188 179T368 144Q485 144 561 211T638 398Q638 506 571 570T358 634H280L310 806H388Q528 806 616 876T704 1076Q704 1168 655 1212T514 1256Q439 1256 362 1223T210 1142L212
1336Q293 1381 383 1404T574 1428Q733 1428 825 1340T918 1110Q918 1008 872 925T745 784T556 706L564 752Q696 719 770 632T844 406Q844 283 781 185T608 30T356 -28Z" />
<glyph unicode="4" horiz-adv-x="1120" d="M572 0L776 1150L808 1094L268 470L234 524H1009L981 362H-40L866 1400H1004L756 0H572Z" />
<glyph unicode="5" horiz-adv-x="1022" d="M350 -28Q239 -28 143 0T-42 86L46 246Q120 200 191 172T356 144Q456 144 527 183T637 293T676 456Q676 582 601 651T388 720Q321 720 259 715T132 698L334 1400H970L930 1220H373L482 1302L328 782L284 868Q325 876
370 880T460 884Q663 884 769 770T876 476Q876 325 808 212T621 35T350 -28Z" />
<glyph unicode="6" horiz-adv-x="1098" d="M448 -28Q323 -28 232 22T90 165T40 382Q40 544 106 700T285 994T543 1244T842 1428L950 1286Q850 1241 755 1184T574 1057T419 909T303 739T236 550L212 632Q275 728 381 784T616 840Q783 840 880 739T978 480Q978 339
910 224T722 41T448 -28ZM460 136Q552 136 624 182T737 303T778 462Q778 555 723 615T566 676Q471 676 396 630T279 509T236 350Q237 252 298 194T460 136Z" />
<glyph unicode="7" horiz-adv-x="970" d="M36 0L790 1306L828 1220H152L184 1400H1050L236 0H36Z" />
<glyph unicode="8" horiz-adv-x="1168" d="M576 686Q476 686 397 723T271 829T224 988Q224 1111 285 1211T453 1369T692 1428Q811 1428 886 1386T996 1272T1032 1116Q1032 989 971 892T807 741T576 686ZM596 842Q704 842 772 913T840 1088Q840 1165 798 1210T668
1256Q557 1256 487 1186T416 1012Q416 940 462 891T596 842ZM456 -28Q334 -28 241 15T96 138T44 324Q44 431 87 523T206 684T382 793T594 832Q779 832 885 737T992 480Q992 331 920 217T727 37T456 -28ZM472 144Q567 144 640 184T754 296T794 458Q793 558 733 617T566
676Q471 676 398 631T283 510T242 344Q243 251 303 198T472 144Z" />
<glyph unicode="9" horiz-adv-x="1118" d="M630 1428Q755 1428 846 1378T988 1235T1038 1018Q1038 856 972 700T793 406T535 156T236 -28L128 114Q228 159 323 216T504 343T659 491T775 661T842 850L866 768Q803 672 697 616T462 560Q295 560 198 661T100 920Q100
1061 168 1176T356 1359T630 1428ZM618 1264Q526 1264 454 1218T341 1097T300 938Q300 845 355 785T512 724Q607 724 682 770T799 891T842 1050Q841 1148 780 1206T618 1264Z" />
<glyph unicode=":" horiz-adv-x="372" d="M108 768L144 980H360L324 768H108ZM-20 0L16 212H232L196 0H-20Z" />
<glyph unicode=";" horiz-adv-x="374" d="M54 -214H-60L50 0H-20L18 212H234L200 20L54 -214ZM110 768L146 980H362L326 768H110Z" />
<glyph unicode="&lt;" horiz-adv-x="846" d="M20 476L52 648L806 974L776 798L109 526L111 595L692 318L662 150L20 476Z" />
<glyph unicode="=" horiz-adv-x="864" d="M47 636L75 788H775L747 636H47ZM-9 320L19 472H719L691 320H-9Z" />
<glyph unicode="&gt;" horiz-adv-x="806" d="M726 648L694 476L-60 150L-30 326L637 598L635 529L54 806L84 974L726 648Z" />
<glyph unicode="?" horiz-adv-x="884" d="M214 344L223 394Q239 483 275 548T359 666T454 766Q507 820 551 870T623 973T650 1092Q650 1176 592 1216T462 1256Q387 1256 320 1235T190 1180L200 1342Q268 1380 350 1404T538 1428Q699 1428 781 1346T864 1142Q865
1051 832 980T744 847T626 722Q579 674 535 627T458 527T413 406L402 344H214ZM140 0L178 212H394L356 0H140Z" />
<glyph unicode="@" horiz-adv-x="1334" d="M418 -174Q244 -174 147 -68T50 228Q50 410 120 569T310 848T576 1037T876 1106Q1056 1106 1152 998T1248 706Q1248 624 1228 534T1165 366T1059 238T908 188Q880 188 862 199T844 256Q844 315 870 383T938 542T1030
758Q1003 797 954 830T830 864Q738 864 639 809T456 664T319 464T266 248Q266 182 295 131T396 80Q449 80 514 106T645 185T762 312Q761 305 757 295T750 271T743 241T740 204Q740 162 757 123T820 84Q853 84 900 102T994 150T1076 212Q1000 98 894 11T666 -125T418
-174ZM480 212Q447 212 433 238T418 304Q418 392 460 471T567 611T701 707T824 742Q839 742 865 736T898 698Q871 618 820 533T707 375T585 257T480 212Z" />
<glyph unicode="A" horiz-adv-x="1136" d="M-74 0L624 1400H816L1020 0H820L768 394L740 534L662 1219L708 1212L393 535L315 392L126 0H-74ZM232 378L324 550H814L846 378H232Z" />
<glyph unicode="B" horiz-adv-x="1130" d="M56 0L302 1400H618Q715 1400 791 1385T920 1336T1002 1244T1030 1100Q1030 959 961 866T781 732L770 772Q896 744 961 666T1026 462Q1026 346 986 259T871 115T694 29T466 0H56ZM334 818H574Q693 818 764 881T836 1054Q836
1116 813 1155T746 1212T636 1230H462L276 172H468Q566 172 647 201T777 291T826 442Q826 543 769 594T598 646H304L334 818Z" />
<glyph unicode="C" horiz-adv-x="1130" d="M610 -28Q452 -28 336 42T156 246T92 568Q92 754 153 911T321 1184T567 1364T862 1428Q960 1428 1051 1405T1202 1346L1150 1170Q1080 1199 1006 1227T836 1256Q711 1256 612 1200T444 1048T339 830T302 578Q302 451
339 353T452 200T646 144Q736 144 819 172T984 228L972 52Q899 18 801 -5T610 -28Z" />
<glyph unicode="D" horiz-adv-x="1344" d="M56 0L302 1400H770Q927 1400 1043 1335T1224 1140T1288 822Q1288 639 1229 488T1064 228T821 60T524 0H56ZM261 88L191 172H554Q679 172 776 223T941 363T1043 568T1078 812Q1078 1007 995 1117T740 1228H377L477 1312L261 88Z" />
<glyph unicode="E" horiz-adv-x="1028" d="M263 88L193 172H884L854 0H56L302 1400H1084L1054 1228H379L479 1312L263 88ZM316 818H856L826 646H286L316 818Z" />
<glyph unicode="F" horiz-adv-x="974" d="M246 0H56L302 1400H1074L1044 1228H377L477 1312L246 0ZM314 818H838L808 646H284L314 818Z" />
<glyph unicode="G" horiz-adv-x="1242" d="M638 -28Q481 -28 358 43T165 248T94 570Q94 755 154 911T321 1184T566 1364T864 1428Q929 1428 997 1418T1126 1389T1230 1348L1182 1182Q1110 1212 1020 1234T844 1256Q710 1256 609 1198T439 1043T337 825T302 580Q302
384 391 264T670 144Q722 144 796 157T929 211L861 98L953 614L1023 530H758L788 702H1158L1048 78Q970 35 867 4T638 -28Z" />
<glyph unicode="H" horiz-adv-x="1376" d="M56 0L302 1400H492L246 0H56ZM920 0L1168 1400H1358L1110 0H920ZM284 642L314 822H1162L1130 642H284Z" />
<glyph unicode="I" horiz-adv-x="510" d="M56 0L302 1400H492L246 0H56Z" />
<glyph unicode="J" horiz-adv-x="512" d="M-152 -344L-148 -232H-130Q-76 -232 -41 -212T18 -143T56 -6L304 1400H494L236 -64Q212 -199 126 -271T-110 -344H-152Z" />
<glyph unicode="K" horiz-adv-x="1094" d="M766 0L394 742L968 1400H1196L540 679L559 818L984 0H766ZM56 0L302 1400H492L246 0H56Z" />
<glyph unicode="L" horiz-adv-x="934" d="M56 0L302 1400H492L261 88L191 172H836L804 0H56Z" />
<glyph unicode="M" horiz-adv-x="1504" d="M-6 0L412 1400H584L794 623L727 633L1204 1400H1376L1300 0H1100L1174 1117L1215 1103L708 332L465 1114H514L194 0H-6Z" />
<glyph unicode="N" horiz-adv-x="1306" d="M56 0L302 1400H502L943 272L897 268L1096 1400H1288L1040 0H880L411 1185L457 1190L246 0H56Z" />
<glyph unicode="O" horiz-adv-x="1420" d="M606 -28Q448 -28 333 42T155 244T92 564Q92 750 152 907T317 1182T560 1363T852 1428Q1010 1428 1125 1358T1303 1156T1366 836Q1366 650 1306 493T1140 218T897 37T606 -28ZM638 144Q757 144 853 200T1017 353T1121
572T1158 824Q1158 947 1123 1045T1014 1199T820 1256Q701 1256 605 1200T442 1047T338 829T302 576Q302 454 336 356T445 201T638 144Z" />
<glyph unicode="P" horiz-adv-x="1076" d="M292 660H594Q694 660 761 705T863 826T898 998Q898 1103 851 1166T684 1230H385L485 1314L252 0H56L302 1400H688Q826 1400 917 1361T1053 1238T1098 1024Q1098 877 1055 775T940 610T779 519T596 490H262L292 660Z" />
<glyph unicode="Q" horiz-adv-x="1418" d="M606 -28Q448 -28 333 42T155 244T92 564Q92 750 152 907T317 1182T560 1363T852 1428Q1010 1428 1125 1358T1303 1156T1366 836Q1366 658 1305 501T1136 226T893 40T606 -28ZM638 144Q757 144 854 200T1022 353T1129
572T1167 824Q1167 947 1130 1045T1016 1199T820 1256Q701 1256 605 1200T442 1047T338 829T302 576Q302 454 336 356T445 201T638 144ZM1106 6L742 392L868 514L1232 124L1106 6Z" />
<glyph unicode="R" horiz-adv-x="1130" d="M56 0L302 1400H688Q895 1400 998 1314T1102 1054Q1102 944 1071 861T983 717T855 620T701 564T536 546H262L292 726H614Q709 726 772 770T868 885T900 1038Q900 1121 859 1180T704 1240H385L485 1314L252 0H56ZM780
0L592 584L784 634L982 0H780Z" />
<glyph unicode="S" horiz-adv-x="1076" d="M408 -28Q270 -28 167 0T12 62L76 284Q133 235 224 190T438 144Q524 144 598 169T717 248T762 384Q762 458 726 504T629 581T494 642Q439 665 380 690T270 751T188 840T156 970Q156 1037 184 1116T275 1266T440 1382T688
1428Q813 1428 910 1398T1068 1332L1014 1130Q933 1192 854 1224T674 1256Q608 1256 537 1232T416 1157T366 1026Q366 942 427 900T594 816Q662 790 729 762T852 692T942 587T976 426Q976 347 948 267T855 120T681 13T408 -28Z" />
<glyph unicode="T" horiz-adv-x="1046" d="M322 0L546 1274H736L512 0H322ZM174 1228L204 1400H1122L1092 1228H174Z" />
<glyph unicode="U" horiz-adv-x="1336" d="M560 -28Q341 -28 236 87T130 408Q130 441 134 493T148 594L290 1400H480L354 686Q344 628 337 570T330 458Q330 369 353 298T433 186T590 144Q702 144 777 194T900 325T975 501T1018 686L1144 1400H1334L1192 594Q1158
402 1077 263T866 48T560 -28Z" />
<glyph unicode="V" horiz-adv-x="1190" d="M376 0L150 1400H350L534 145L484 154L1106 1400H1306L588 0H376Z" />
<glyph unicode="W" horiz-adv-x="1778" d="M292 0L186 1400H386L444 151L406 158L934 1372H1132L1222 153L1184 159L1692 1400H1890L1274 0H1082L985 1233L1026 1226L490 0H292Z" />
<glyph unicode="X" horiz-adv-x="1124" d="M-78 0L494 754L579 614L130 0H-78ZM675 727L1000 0H794L544 589L470 699L176 1400H396L618 829L675 727ZM660 685L591 816L1032 1400H1238L660 685Z" />
<glyph unicode="Y" horiz-adv-x="1092" d="M338 0L467 730L483 566L156 1400H356L615 738L534 749L1008 1400H1208L597 577L663 730L534 0H338Z" />
<glyph unicode="Z" horiz-adv-x="1000" d="M-82 0L829 1298L865 1228H216L246 1400H1124L211 102L175 172H826L796 0H-82Z" />
<glyph unicode="[" horiz-adv-x="612" d="M-8 -270L304 1500H766L742 1364H361L461 1448L167 -218L97 -134H478L454 -270H-8Z" />
<glyph unicode="\" horiz-adv-x="610" d="M348 -170L120 1400H302L530 -170H348Z" />
<glyph unicode="]" horiz-adv-x="620" d="M-136 -270L-112 -134H182L446 1364H152L176 1500H638L326 -270H-136Z" />
<glyph unicode="^" horiz-adv-x="862" d="M44 928L80 1130L514 1518L850 1086L814 884L482 1282L44 928Z" />
<glyph unicode="_" horiz-adv-x="1002" d="M-140 -244L-110 -72H898L868 -244H-140Z" />
<glyph unicode="`" horiz-adv-x="752" d="M550 1152L220 1290L254 1486L572 1274L550 1152Z" />
<glyph unicode="a" horiz-adv-x="1080" d="M368 -20Q269 -20 196 29T82 166T42 372Q42 491 80 603T187 804T351 947T558 1000Q608 1000 659 985T751 928T812 802L757 796L824 980H984L866 286Q858 240 858 208Q858 160 879 142T952 124L902 -20Q851 -20 809 -15T736
12T686 82T665 218L711 173Q669 111 617 68T502 2T368 -20ZM428 140Q485 140 540 166T642 245T715 375T742 554Q742 704 684 772T538 840Q450 840 381 780T271 622T230 410Q230 298 276 219T428 140Z" />
<glyph unicode="b" horiz-adv-x="1040" d="M492 -20Q381 -20 306 31T195 176L244 206L184 0H20L284 1500H466L341 790L310 810Q357 888 413 929T526 985T630 1000Q742 1000 816 944T927 793T964 588Q964 441 926 328T821 137T669 20T492 -20ZM482 140Q567 140
633 196T738 350T776 570Q776 686 729 763T580 840Q501 840 430 788T313 639T268 408Q268 263 329 202T482 140Z" />
<glyph unicode="c" horiz-adv-x="836" d="M420 -20Q285 -20 203 36T84 187T46 398Q46 515 81 623T185 816T358 950T598 1000Q673 1000 739 985T846 942L794 780Q749 809 700 824T598 840Q476 840 395 784T273 634T232 424Q232 289 292 214T478 138Q580 138 694
198L688 44Q643 20 576 0T420 -20Z" />
<glyph unicode="d" horiz-adv-x="1040" d="M368 -20Q270 -20 197 34T83 182T42 394Q42 508 78 616T182 811T339 949T538 1000Q607 1000 658 979T746 915T814 806L772 792L896 1500H1078L814 0H648L662 209L696 176Q631 81 546 31T368 -20ZM428 140Q485 140 540
166T642 245T715 375T742 554Q742 704 684 772T538 840Q450 840 381 780T271 622T230 410Q230 298 276 219T428 140Z" />
<glyph unicode="e" horiz-adv-x="916" d="M220 575Q262 559 301 551T396 542Q516 542 582 572T675 645T702 728Q702 768 683 792T630 828T558 840Q491 840 431 806T321 698T239 509L238 499Q227 356 258 278T350 170T490 140Q549 140 622 154T760 198L752 56Q695
23 617 2T442 -20Q306 -20 218 36T86 189T42 404Q42 520 80 627T189 818T358 951T576 1000Q719 1000 793 931T868 750Q868 695 846 637T772 530T632 450T412 420Q353 420 296 427T204 448L220 575Z" />
<glyph unicode="f" horiz-adv-x="606" d="M284 1228Q298 1306 329 1367T420 1464T574 1500Q633 1500 673 1490T726 1474L676 1322Q649 1333 624 1336T578 1340Q534 1340 511 1318T474 1244T444 1100L250 0H68L284 1228ZM72 840L116 980H648L622 840H72Z" />
<glyph unicode="g" horiz-adv-x="918" d="M386 226Q242 226 158 307T74 548Q74 662 126 765T277 934T510 1000Q653 1000 735 912T818 674Q818 594 788 515T700 370T564 265T386 226ZM406 364Q480 364 534 408T618 521T648 668Q648 761 606 808T486 856Q411 856
357 815T273 706T244 560Q244 466 287 415T406 364ZM288 -500Q149 -500 68 -460T-49 -360T-84 -246Q-84 -209 -66 -158T-1 -56T135 25L266 -23Q219 -35 177 -66T109 -137T82 -220Q82 -278 141 -319T312 -360Q401 -360 466 -335T566 -270T602 -190Q602 -142 562
-116T459 -74T324 -47T190 -16T86 36T46 127Q46 157 79 209T194 296L285 254Q260 239 242 220T224 178Q224 144 279 126T464 80Q510 70 564 55T668 13T748 -56T780 -162Q780 -245 721 -322T551 -450T288 -500ZM763 844L707 921Q748 947 806 965T934 984H962L924
864H870Q860 864 825 860T763 844Z" />
<glyph unicode="h" horiz-adv-x="1012" d="M20 0L284 1500H468L202 0H20ZM614 0L698 490Q709 552 714 595T720 672Q720 750 679 795T562 840Q484 840 426 801T317 699L343 860Q409 937 479 968T636 1000Q728 1000 787 959T875 848T904 696Q904 665 899 614T882
494L796 0H614Z" />
<glyph unicode="i" horiz-adv-x="428" d="M20 0L192 980H374L202 0H20ZM232 1200L266 1400H448L414 1200H232Z" />
<glyph unicode="j" horiz-adv-x="428" d="M-170 -484L-164 -346Q-104 -338 -75 -316T-31 -253T-6 -146L192 980H374L163 -214Q141 -335 73 -396T-106 -474L-170 -484ZM232 1200L268 1400H450L414 1200H232Z" />
<glyph unicode="k" horiz-adv-x="856" d="M20 0L284 1500H466L202 0H20ZM520 0L280 520L686 980H902L411 466L432 604L734 0H520Z" />
<glyph unicode="l" horiz-adv-x="468" d="M240 -20Q134 -20 91 31T48 152Q48 174 53 209T68 300L278 1500H460L248 282Q242 248 240 231T238 204Q238 155 263 140T350 124L302 -20H240Z" />
<glyph unicode="m" horiz-adv-x="1602" d="M20 0L192 980H336V757L202 0H20ZM612 0Q643 177 663 293T695 480T712 587T718 640T720 668Q720 769 679 804T566 840Q488 840 425 806T318 697L320 860Q403 945 469 972T608 1000Q670 1000 728 979T828 897T885 715L915
687L794 0H612ZM1204 0Q1236 184 1257 304T1290 495T1307 603T1314 655T1316 680Q1316 761 1279 800T1160 840Q1066 840 1012 796T931 688T894 568L836 737Q868 818 920 877T1047 968T1218 1000Q1358 1000 1430 931T1502 720Q1502 706 1501 687T1493 628T1475 512T1441
313T1386 0H1204Z" />
<glyph unicode="n" horiz-adv-x="1030" d="M20 0L192 980H346L332 733L202 0H20ZM632 0Q663 176 683 292T715 477T732 583T738 636T740 662Q740 754 700 797T572 840Q495 840 429 806T319 697L325 861Q408 946 482 973T632 1000Q788 1000 856 918T924 686Q924
673 923 654T916 596T899 485T867 296T814 0H632Z" />
<glyph unicode="o" horiz-adv-x="1028" d="M412 -20Q287 -20 205 34T83 183T42 394Q42 515 81 624T193 817T363 951T580 1000Q705 1000 787 945T909 796T950 584Q950 464 911 356T799 162T629 29T412 -20ZM438 140Q538 140 611 198T724 353T764 570Q764 705 711
772T554 840Q454 840 381 782T268 627T228 410Q228 277 280 209T438 140Z" />
<glyph unicode="p" horiz-adv-x="1044" d="M-66 -484L192 980H340L330 755L290 787Q370 888 446 944T630 1000Q742 1000 816 944T927 794T964 586Q964 470 928 362T827 167T671 31T472 -20Q376 -20 304 28T195 188L237 208L116 -484H-66ZM462 140Q554 140 625
201T736 362T776 574Q776 691 729 765T584 840Q505 840 433 789T314 642T268 412Q268 265 324 203T462 140Z" />
<glyph unicode="q" horiz-adv-x="1042" d="M548 -484L671 208L696 179Q636 79 542 30T374 -20Q261 -20 188 32T78 175T42 378Q42 497 79 608T184 808T346 948T552 1000Q668 1000 724 942T827 780L773 758L840 980H988L730 -484H548ZM426 140Q504 140 576 189T694
333T740 562Q740 711 683 775T542 840Q451 840 381 780T272 622T232 410Q232 295 278 218T426 140Z" />
<glyph unicode="r" horiz-adv-x="614" d="M20 0L192 980H350L333 708L208 0H20ZM323 680L322 801Q381 874 435 921T543 992T652 1016H680L608 818H542Q502 818 458 798T378 745T323 680Z" />
<glyph unicode="s" horiz-adv-x="778" d="M276 -20Q153 -20 82 11T-20 66L30 240Q59 212 127 176T292 140Q387 140 431 179T476 280Q476 351 429 379T330 424Q274 442 222 466T136 536T102 662Q102 737 139 815T261 947T488 1000Q578 1000 638 980T732 936L684
772Q653 808 600 833T476 858Q395 858 340 821T284 710Q284 650 327 624T462 566Q505 551 552 526T633 452T666 320Q666 277 652 219T597 107T479 16T276 -20Z" />
<glyph unicode="t" horiz-adv-x="606" d="M296 -20Q188 -20 144 35T100 162Q100 168 102 184T112 252T140 416T193 723T282 1222L466 1240L288 202Q288 148 320 136T438 124H486L446 -20H296ZM70 840L110 980H642L616 840H70Z" />
<glyph unicode="u" horiz-adv-x="988" d="M340 -20Q210 -20 139 55T68 268Q68 291 72 323T84 404L182 980H364L270 432Q263 393 261 366T258 324Q258 140 414 140Q476 140 534 170T635 268L612 120Q562 59 496 20T340 -20ZM596 0L604 136L752 980H934L762 0H596Z" />
<glyph unicode="v" horiz-adv-x="878" d="M236 0L70 980H262L375 113L327 121L738 980H932L422 0H236Z" />
<glyph unicode="w" horiz-adv-x="1324" d="M190 0L98 980H298L327 113L291 119L638 950H812L868 113L831 118L1164 980H1364L926 0H742L679 809L720 802L372 0H190Z" />
<glyph unicode="x" horiz-adv-x="878" d="M542 0L384 397L320 477L104 980H312L449 585L503 490L750 0H542ZM-74 0L334 518L409 410L134 0H-74ZM489 450L425 573L702 980H916L489 450Z" />
<glyph unicode="y" horiz-adv-x="918" d="M-26 -484L312 119L288 -40L64 980H266L415 168L361 176L772 980H974L168 -484H-26Z" />
<glyph unicode="z" horiz-adv-x="860" d="M-58 0L617 909L651 840H108L132 980H882L209 71L175 140H722L696 0H-58Z" />
<glyph unicode="{" horiz-adv-x="560" d="M362 -272Q209 -272 142 -207T74 -36Q74 5 87 65T118 193T148 321T162 426Q162 491 132 522T30 554L50 674Q144 674 187 729T247 887Q261 975 266 1059T280 1198Q302 1329 396 1414T674 1500H748L724 1362H670Q622 1362
582 1352T509 1316T456 1249T423 1143Q416 1098 412 1044T403 933T389 825Q373 727 313 678T160 606L164 622Q232 603 273 566T314 454Q314 421 302 366T273 248T245 126T232 24Q232 -36 252 -70T312 -119T406 -134H460L436 -272H362Z" />
<glyph unicode="|" horiz-adv-x="430" d="M-50 -418L290 1500H474L134 -418H-50Z" />
<glyph unicode="}" horiz-adv-x="560" d="M198 1500Q351 1500 418 1435T486 1264Q486 1223 473 1163T442 1035T412 907T398 802Q398 737 428 706T530 674L510 554Q416 554 373 499T313 341Q299 253 294 169T280 30Q258 -101 164 -186T-114 -272H-188L-164 -134H-110Q-62
-134 -22 -124T51 -88T104 -21T137 85Q144 130 148 184T157 295T171 403Q187 501 247 550T400 622L396 606Q328 625 287 662T246 774Q246 807 258 862T287 980T315 1102T328 1204Q328 1264 308 1298T248 1347T154 1362H100L124 1500H198Z" />
<glyph unicode="~" horiz-adv-x="860" d="M590 588Q527 588 484 611T403 658T316 682Q279 682 253 660T218 596H72Q99 718 162 782T320 846Q385 846 429 823T511 776T594 752Q674 752 690 844H836Q786 588 590 588Z" />
<glyph unicode="&#xa0;" horiz-adv-x="406" />
<glyph unicode="&#xa1;" horiz-adv-x="360" d="M274 656L266 604L128 -400H-120L98 604L106 656H274ZM360 1000L322 788H106L144 1000H360Z" />
<glyph unicode="&#xa2;" horiz-adv-x="888" d="M488 68L446 -288H290L372 68H488ZM522 918L562 1260H718L638 918H522ZM422 -20Q287 -20 205 36T86 187T48 398Q48 515 83 623T187 816T360 950T600 1000Q675 1000 741 985T848 942L796 780Q751 809 702 824T600
840Q478 840 397 784T275 634T234 424Q234 289 294 214T480 138Q582 138 696 198L690 44Q645 20 578 0T422 -20Z" />
<glyph unicode="&#xa3;" horiz-adv-x="1048" d="M168 98L138 180H830L798 0H-60Q4 104 49 189T126 348T181 492T226 636L340 1040Q376 1166 436 1252T585 1383T790 1428Q859 1428 916 1414T1028 1370L972 1168Q927 1206 880 1231T774 1256Q710 1256 661 1227T577
1143T522 1016L420 652Q389 540 357 451T281 279T168 98ZM72 632L98 780H810L784 632H72Z" />
<glyph unicode="&#xa4;" horiz-adv-x="1256" d="M516 188Q388 188 296 240T155 384T106 594Q106 719 152 829T281 1023T469 1156T696 1204Q823 1204 915 1152T1056 1007T1106 798Q1106 673 1060 563T932 368T744 236T516 188ZM546 352Q657 352 742 404T877 551T926
774Q926 890 862 965T666 1040Q552 1040 466 981T333 825T286 614Q287 504 350 428T546 352ZM14 126L-36 186L240 420L292 360L14 126ZM1006 122L806 366L868 418L1068 174L1006 122ZM336 984L144 1218L206 1270L402 1032L336 984ZM972 972L920 1032L1198 1266L1248
1206L972 972Z" />
<glyph unicode="&#xa5;" horiz-adv-x="1078" d="M70 574L96 722H852L826 574H70ZM20 294L46 442H802L776 294H20ZM248 0L377 730L393 566L66 1400H266L525 738L444 749L918 1400H1118L507 577L573 730L444 0H248Z" />
<glyph unicode="&#xa6;" horiz-adv-x="422" d="M146 684L290 1500H466L322 684H146ZM-50 -420L94 396H270L126 -420H-50Z" />
<glyph unicode="&#xa7;" horiz-adv-x="900" d="M492 904Q368 883 289 832T210 684Q210 620 242 580T326 511T436 455T545 390T629 294T662 144Q662 48 609 -22T469 -130T282 -168Q197 -168 125 -145T0 -82L48 44Q105 2 169 -22T306 -46Q410 -46 469 0T528 122Q528
186 495 226T409 295T297 350T186 412T100 502T66 642Q66 759 152 845T380 968L492 904ZM688 646Q688 714 657 758T576 835T470 897T365 962T284 1051T252 1184Q252 1276 300 1347T433 1459T626 1500Q721 1500 790 1478T920 1420L872 1294Q823 1329 762 1354T626
1380Q530 1380 467 1330T404 1206Q404 1154 436 1117T518 1048T624 984T730 910T812 811T844 670Q844 592 804 535T689 433T516 352L436 424Q506 432 563 466T654 548T688 646Z" />
<glyph unicode="&#xa8;" horiz-adv-x="812" d="M160 1182L192 1342H360L328 1182H160ZM532 1182L564 1342H732L700 1182H532Z" />
<glyph unicode="&#xa9;" horiz-adv-x="1334" d="M578 74Q439 74 336 139T177 323T120 602Q120 775 174 918T324 1166T545 1328T810 1386Q949 1386 1051 1321T1210 1138T1266 860Q1266 688 1212 544T1063 295T844 132T578 74ZM594 162Q731 162 836 219T1012 373T1121
596T1158 858Q1158 983 1119 1082T1000 1238T794 1296Q657 1296 552 1240T374 1086T265 863T228 600Q228 475 267 376T387 220T594 162ZM650 394Q542 394 478 466T414 660Q414 778 462 868T590 1009T768 1060Q812 1060 855 1050T930 1022L894 902Q860 919 824 929T746
940Q684 940 640 903T573 805T550 674Q550 605 579 559T672 512Q713 512 752 523T834 552L826 434Q789 415 742 405T650 394Z" />
<glyph unicode="&#xaa;" horiz-adv-x="614" d="M266 868Q199 868 159 904T120 1009Q120 1074 155 1116T246 1184T367 1223T492 1242L477 1141Q435 1139 390 1127T313 1091T282 1026Q282 980 342 980Q365 980 389 988T438 1014L463 1156Q463 1158 466 1178T474
1223T478 1260Q478 1292 457 1308T386 1324Q347 1324 309 1315T222 1288L232 1408Q288 1431 341 1440T448 1450Q535 1450 584 1413T634 1292Q634 1279 632 1263T628 1234L600 1074Q597 1056 595 1045T592 1020Q592 1002 601 996T628 990H634L598 868H546Q486 868
457 898T457 1007L473 970Q459 938 426 915T351 880T266 868Z" />
<glyph unicode="&#xab;" horiz-adv-x="1070" d="M704 156L510 568L850 980H1058L664 502L681 645L914 156H704ZM236 156L42 568L382 980H590L196 502L214 645L444 156H236Z" />
<glyph unicode="&#xac;" horiz-adv-x="1006" d="M678 302L755 744L825 660H60L86 812H926L838 302H678Z" />
<glyph unicode="&#xad;" horiz-adv-x="832" d="M116 536L146 708H704L674 536H116Z" />
<glyph unicode="&#xae;" horiz-adv-x="1334" d="M578 74Q439 74 336 139T177 323T120 602Q120 775 174 918T324 1166T545 1328T810 1386Q949 1386 1051 1321T1210 1138T1266 860Q1266 688 1212 544T1063 295T844 132T578 74ZM594 160Q730 160 835 217T1012 372T1122
596T1160 858Q1160 984 1121 1083T1000 1240T794 1298Q658 1298 553 1241T375 1087T265 864T228 602Q228 476 267 376T387 218T594 160ZM424 420L538 1062H756Q808 1062 847 1048T908 1001T930 910Q930 832 892 779T800 688L882 420H752L678 654H592L552 420H424ZM612
766H676Q736 766 766 798T796 892Q796 925 779 944T714 964H648L612 766Z" />
<glyph unicode="&#xaf;" horiz-adv-x="892" d="M160 1182L188 1324H812L784 1182H160Z" />
<glyph unicode="&#xb0;" horiz-adv-x="558" d="M274 964Q172 964 120 1025T68 1180Q68 1272 107 1347T215 1466T370 1510Q474 1510 526 1448T578 1292Q578 1199 539 1125T430 1008T274 964ZM288 1044Q345 1044 388 1078T456 1166T480 1280Q480 1340 451 1385T356
1430Q300 1430 257 1395T189 1306T164 1194Q164 1133 195 1089T288 1044Z" />
<glyph unicode="&#xb1;" horiz-adv-x="864" d="M422 352H282L404 1040H544L422 352ZM-28 120L-2 264H674L648 120H-28ZM88 768H764L738 624H62L88 768Z" />
<glyph unicode="&#xb2;" horiz-adv-x="584" d="M44 772L322 1088Q379 1153 414 1207T450 1314Q450 1352 428 1376T358 1400Q300 1400 249 1374T152 1314L164 1468Q209 1497 275 1520T408 1544Q507 1544 563 1491T620 1354Q620 1263 569 1186T446 1026L244 794L246
908H582L558 772H44Z" />
<glyph unicode="&#xb3;" horiz-adv-x="577" d="M258 752Q186 752 126 770T18 818L80 954Q121 923 163 903T262 882Q327 882 366 913T406 1002Q406 1047 378 1072T290 1098H234L258 1228H316Q379 1228 416 1260T454 1338Q454 1376 429 1399T350 1422Q302 1422 258
1407T170 1366L180 1504Q230 1527 285 1539T404 1552Q505 1552 559 1503T614 1372Q614 1294 565 1239T432 1156L436 1180Q501 1164 536 1122T572 1012Q572 935 529 877T415 785T258 752Z" />
<glyph unicode="&#xb4;" horiz-adv-x="790" d="M220 1150L244 1286L610 1494L576 1272L220 1150Z" />
<glyph unicode="&#xb5;" horiz-adv-x="1006" d="M632 122Q576 54 512 16T366 -22Q315 -22 276 -10T208 24L116 -484H-60L200 980H382L286 424Q282 399 279 372T276 324Q276 138 440 138Q502 138 553 172T652 254L632 122ZM637 226L770 980H952L838 340Q832 306
828 276T824 220Q824 124 894 124H918L860 -20H828Q737 -20 683 15T617 124L637 226Z" />
<glyph unicode="&#xb6;" horiz-adv-x="1144" d="M774 1266L550 0H460L561 570L629 485Q451 479 340 536T178 687T126 884Q126 974 165 1065T280 1232T469 1354T730 1400H1198L1174 1266H774ZM1045 1282L818 0H710L935 1282H1045Z" />
<glyph unicode="&#xb7;" horiz-adv-x="460" d="M88 426L134 686H358L312 426H88Z" />
<glyph unicode="&#xb8;" horiz-adv-x="638" d="M368 -158L308 -128Q334 -119 357 -114T408 -108Q479 -108 518 -143T558 -240Q558 -333 487 -392T310 -452Q259 -452 223 -441T160 -414L208 -316Q235 -332 264 -341T328 -350Q381 -350 410 -325T440 -262Q440 -194
352 -194Q330 -194 307 -197T256 -210L346 0H446L368 -158Z" />
<glyph unicode="&#xb9;" horiz-adv-x="412" d="M186 772L299 1414L339 1380Q290 1328 243 1302T156 1264L164 1396Q215 1413 270 1446T358 1516H468L336 772H186Z" />
<glyph unicode="&#xba;" horiz-adv-x="648" d="M366 868Q245 868 183 937T120 1104Q120 1198 167 1276T294 1402T470 1450Q592 1450 654 1383T716 1218Q716 1108 668 1030T541 910T366 868ZM388 988Q442 988 480 1019T539 1101T560 1208Q560 1264 532 1298T448
1332Q394 1332 356 1301T297 1220T276 1118Q276 1060 304 1024T388 988Z" />
<glyph unicode="&#xbb;" horiz-adv-x="1072" d="M474 156L868 634L850 491L620 980H826L1022 568L682 156H474ZM6 156L403 634L385 491L152 980H360L554 568L214 156H6Z" />
<glyph unicode="&#xbc;" horiz-adv-x="1222" d="M165 656L278 1298L318 1264Q269 1212 222 1186T135 1148L143 1280Q194 1297 249 1330T337 1400H447L315 656H165ZM-60 0L994 1400H1162L110 0H-60ZM1048 0H916L1028 632L1068 590L762 238L720 276H1196L1174 158H546L1068
744H1180L1048 0Z" />
<glyph unicode="&#xbd;" horiz-adv-x="1326" d="M-60 0L994 1400H1162L110 0H-60ZM650 0L928 316Q985 381 1020 435T1056 542Q1056 580 1034 604T964 628Q906 628 855 602T758 542L770 696Q815 725 881 748T1014 772Q1113 772 1169 719T1226 582Q1226 491 1175
414T1052 254L850 22L852 136H1188L1164 0H650ZM165 656L278 1298L318 1264Q269 1212 222 1186T135 1148L143 1280Q194 1297 249 1330T337 1400H447L315 656H165Z" />
<glyph unicode="&#xbe;" horiz-adv-x="1426" d="M144 0L1198 1400H1366L314 0H144ZM236 628Q164 628 104 646T-4 694L58 830Q99 799 141 779T240 758Q305 758 344 789T384 878Q384 923 356 948T268 974H212L236 1104H294Q357 1104 394 1136T432 1214Q432 1252
407 1275T328 1298Q280 1298 236 1283T148 1242L158 1380Q208 1403 263 1415T382 1428Q483 1428 537 1379T592 1248Q592 1170 543 1115T410 1032L414 1056Q479 1040 514 998T550 888Q550 811 507 753T393 661T236 628ZM1252 0H1120L1232 632L1272 590L966 238L924
276H1400L1378 158H750L1272 744H1384L1252 0Z" />
<glyph unicode="&#xbf;" horiz-adv-x="874" d="M680 656L671 606Q655 517 619 452T535 334T440 234Q387 180 343 130T271 27T244 -92Q244 -176 302 -216T432 -256Q507 -256 574 -235T704 -180L694 -342Q626 -380 544 -404T356 -428Q195 -428 113 -346T30 -142Q29
-51 62 20T150 153T268 278Q315 326 359 373T436 473T481 594L492 656H680ZM754 1000L716 788H500L538 1000H754Z" />
<glyph unicode="&#xc0;" horiz-adv-x="1136" d="M-74 0L624 1400H816L1020 0H820L768 394L740 534L662 1219L708 1212L393 535L315 392L126 0H-74ZM232 378L324 550H814L846 378H232ZM926 1572L596 1710L630 1906L948 1694L926 1572Z" />
<glyph unicode="&#xc1;" horiz-adv-x="1136" d="M-74 0L624 1400H816L1020 0H820L768 394L740 534L662 1219L708 1212L393 535L315 392L126 0H-74ZM232 378L324 550H814L846 378H232ZM586 1570L610 1706L976 1914L942 1692L586 1570Z" />
<glyph unicode="&#xc2;" horiz-adv-x="1136" d="M-74 0L624 1400H816L1020 0H820L768 394L740 534L662 1219L708 1212L393 535L315 392L126 0H-74ZM232 378L324 550H814L846 378H232ZM530 1568L560 1696L816 1890L1026 1670L1002 1548L780 1708L530 1568Z" />
<glyph unicode="&#xc3;" horiz-adv-x="1136" d="M-74 0L624 1400H816L1020 0H820L768 394L740 534L662 1219L708 1212L393 535L315 392L126 0H-74ZM232 378L324 550H814L846 378H232ZM912 1580Q869 1580 825 1602T738 1646T660 1668Q629 1668 611 1649T584 1596H440Q466
1704 518 1761T650 1818Q696 1818 736 1796T816 1752T896 1730Q928 1730 946 1749T972 1808H1116Q1089 1688 1039 1634T912 1580Z" />
<glyph unicode="&#xc4;" horiz-adv-x="1136" d="M-74 0L624 1400H816L1020 0H820L768 394L740 534L662 1219L708 1212L393 535L315 392L126 0H-74ZM232 378L324 550H814L846 378H232ZM488 1602L520 1762H688L656 1602H488ZM860 1602L892 1762H1060L1028 1602H860Z" />
<glyph unicode="&#xc5;" horiz-adv-x="1136" d="M-74 0L624 1400H816L1020 0H820L768 394L740 534L662 1219L708 1212L393 535L315 392L126 0H-74ZM232 378L324 550H814L846 378H232ZM748 1556Q661 1556 618 1603T574 1714Q574 1781 607 1836T697 1923T820 1956Q907
1956 950 1910T994 1798Q994 1731 962 1676T874 1589T748 1556ZM762 1644Q813 1644 851 1684T890 1778Q890 1819 866 1843T806 1868Q755 1868 717 1827T678 1732Q678 1690 703 1667T762 1644Z" />
<glyph unicode="&#xc6;" horiz-adv-x="1576" d="M-104 0L758 1400H1634L1602 1226H965L1065 1310L849 88L779 172H1434L1404 0H620L849 1306L879 1295L86 0H-104ZM234 360L352 544H732L698 360H234ZM872 646L902 818H1404L1374 646H872Z" />
<glyph unicode="&#xc7;" horiz-adv-x="1130" d="M610 -28Q452 -28 336 42T156 246T92 568Q92 754 153 911T321 1184T567 1364T862 1428Q960 1428 1051 1405T1202 1346L1150 1170Q1080 1199 1006 1227T836 1256Q711 1256 612 1200T444 1048T339 830T302 578Q302
451 339 353T452 200T646 144Q736 144 819 172T984 228L972 52Q899 18 801 -5T610 -28ZM604 -158L544 -128Q570 -119 593 -114T644 -108Q715 -108 754 -143T794 -240Q794 -333 723 -392T546 -452Q495 -452 459 -441T396 -414L444 -316Q471 -332 500 -341T564 -350Q617
-350 646 -325T676 -262Q676 -194 588 -194Q566 -194 543 -197T492 -210L582 0H682L604 -158Z" />
<glyph unicode="&#xc8;" horiz-adv-x="1028" d="M263 88L193 172H884L854 0H56L302 1400H1084L1054 1228H379L479 1312L263 88ZM316 818H856L826 646H286L316 818ZM896 1572L566 1710L600 1906L918 1694L896 1572Z" />
<glyph unicode="&#xc9;" horiz-adv-x="1028" d="M263 88L193 172H884L854 0H56L302 1400H1084L1054 1228H379L479 1312L263 88ZM316 818H856L826 646H286L316 818ZM556 1570L580 1706L946 1914L912 1692L556 1570Z" />
<glyph unicode="&#xca;" horiz-adv-x="1028" d="M263 88L193 172H884L854 0H56L302 1400H1084L1054 1228H379L479 1312L263 88ZM316 818H856L826 646H286L316 818ZM500 1568L530 1696L786 1890L996 1670L972 1548L750 1708L500 1568Z" />
<glyph unicode="&#xcb;" horiz-adv-x="1028" d="M263 88L193 172H884L854 0H56L302 1400H1084L1054 1228H379L479 1312L263 88ZM316 818H856L826 646H286L316 818ZM458 1602L490 1762H658L626 1602H458ZM830 1602L862 1762H1030L998 1602H830Z" />
<glyph unicode="&#xcc;" horiz-adv-x="510" d="M56 0L302 1400H492L246 0H56ZM602 1572L272 1710L306 1906L624 1694L602 1572Z" />
<glyph unicode="&#xcd;" horiz-adv-x="510" d="M56 0L302 1400H492L246 0H56ZM262 1570L286 1706L652 1914L618 1692L262 1570Z" />
<glyph unicode="&#xce;" horiz-adv-x="510" d="M56 0L302 1400H492L246 0H56ZM206 1568L236 1696L492 1890L702 1670L678 1548L456 1708L206 1568Z" />
<glyph unicode="&#xcf;" horiz-adv-x="510" d="M56 0L302 1400H492L246 0H56ZM164 1602L196 1762H364L332 1602H164ZM536 1602L568 1762H736L704 1602H536Z" />
<glyph unicode="&#xd0;" horiz-adv-x="1348" d="M68 0L314 1400H778Q934 1400 1049 1334T1228 1142T1292 842Q1292 649 1233 494T1070 228T828 59T532 0H68ZM267 90L197 174H562Q731 174 848 261T1025 497T1086 828Q1086 1008 1003 1118T748 1228H383L483 1312L267
90ZM38 630L66 794H658L628 630H38Z" />
<glyph unicode="&#xd1;" horiz-adv-x="1306" d="M56 0L302 1400H502L943 272L897 268L1096 1400H1288L1040 0H880L411 1185L457 1190L246 0H56ZM986 1576Q943 1576 895 1595T802 1634T724 1654Q699 1654 679 1638T656 1586H526Q543 1684 591 1735T710 1786Q755
1786 802 1767T893 1728T976 1708Q1003 1708 1021 1726T1044 1776H1174Q1159 1677 1109 1627T986 1576Z" />
<glyph unicode="&#xd2;" horiz-adv-x="1420" d="M606 -28Q448 -28 333 42T155 244T92 564Q92 750 152 907T317 1182T560 1363T852 1428Q1010 1428 1125 1358T1303 1156T1366 836Q1366 650 1306 493T1140 218T897 37T606 -28ZM638 144Q757 144 853 200T1017 353T1121
572T1158 824Q1158 947 1123 1045T1014 1199T820 1256Q701 1256 605 1200T442 1047T338 829T302 576Q302 454 336 356T445 201T638 144ZM1058 1572L728 1710L762 1906L1080 1694L1058 1572Z" />
<glyph unicode="&#xd3;" horiz-adv-x="1420" d="M606 -28Q448 -28 333 42T155 244T92 564Q92 750 152 907T317 1182T560 1363T852 1428Q1010 1428 1125 1358T1303 1156T1366 836Q1366 650 1306 493T1140 218T897 37T606 -28ZM638 144Q757 144 853 200T1017 353T1121
572T1158 824Q1158 947 1123 1045T1014 1199T820 1256Q701 1256 605 1200T442 1047T338 829T302 576Q302 454 336 356T445 201T638 144ZM718 1570L742 1706L1108 1914L1074 1692L718 1570Z" />
<glyph unicode="&#xd4;" horiz-adv-x="1420" d="M606 -28Q448 -28 333 42T155 244T92 564Q92 750 152 907T317 1182T560 1363T852 1428Q1010 1428 1125 1358T1303 1156T1366 836Q1366 650 1306 493T1140 218T897 37T606 -28ZM638 144Q757 144 853 200T1017 353T1121
572T1158 824Q1158 947 1123 1045T1014 1199T820 1256Q701 1256 605 1200T442 1047T338 829T302 576Q302 454 336 356T445 201T638 144ZM662 1568L692 1696L948 1890L1158 1670L1134 1548L912 1708L662 1568Z" />
<glyph unicode="&#xd5;" horiz-adv-x="1420" d="M606 -28Q448 -28 333 42T155 244T92 564Q92 750 152 907T317 1182T560 1363T852 1428Q1010 1428 1125 1358T1303 1156T1366 836Q1366 650 1306 493T1140 218T897 37T606 -28ZM638 144Q757 144 853 200T1017 353T1121
572T1158 824Q1158 947 1123 1045T1014 1199T820 1256Q701 1256 605 1200T442 1047T338 829T302 576Q302 454 336 356T445 201T638 144ZM1044 1580Q1001 1580 957 1602T870 1646T792 1668Q761 1668 743 1649T716 1596H572Q598 1704 650 1761T782 1818Q828 1818
868 1796T948 1752T1028 1730Q1060 1730 1078 1749T1104 1808H1248Q1221 1688 1171 1634T1044 1580Z" />
<glyph unicode="&#xd6;" horiz-adv-x="1420" d="M606 -28Q448 -28 333 42T155 244T92 564Q92 750 152 907T317 1182T560 1363T852 1428Q1010 1428 1125 1358T1303 1156T1366 836Q1366 650 1306 493T1140 218T897 37T606 -28ZM638 144Q757 144 853 200T1017 353T1121
572T1158 824Q1158 947 1123 1045T1014 1199T820 1256Q701 1256 605 1200T442 1047T338 829T302 576Q302 454 336 356T445 201T638 144ZM620 1602L652 1762H820L788 1602H620ZM992 1602L1024 1762H1192L1160 1602H992Z" />
<glyph unicode="&#xd7;" horiz-adv-x="878" d="M96 212L2 324L668 904L762 792L96 212ZM666 310L550 214L84 806L200 902L666 310Z" />
<glyph unicode="&#xd8;" horiz-adv-x="1420" d="M1252 1488H1436L216 -88H34L1252 1488ZM606 -28Q448 -28 333 42T155 244T92 564Q92 750 152 907T317 1182T560 1363T852 1428Q1010 1428 1125 1358T1303 1156T1366 836Q1366 650 1306 493T1140 218T897 37T606
-28ZM638 144Q757 144 853 200T1017 353T1121 572T1158 824Q1158 947 1123 1045T1014 1199T820 1256Q701 1256 605 1200T442 1047T338 829T302 576Q302 454 336 356T445 201T638 144Z" />
<glyph unicode="&#xd9;" horiz-adv-x="1336" d="M560 -28Q341 -28 236 87T130 408Q130 441 134 493T148 594L290 1400H480L354 686Q344 628 337 570T330 458Q330 369 353 298T433 186T590 144Q702 144 777 194T900 325T975 501T1018 686L1144 1400H1334L1192 594Q1158
402 1077 263T866 48T560 -28ZM1028 1572L698 1710L732 1906L1050 1694L1028 1572Z" />
<glyph unicode="&#xda;" horiz-adv-x="1336" d="M560 -28Q341 -28 236 87T130 408Q130 441 134 493T148 594L290 1400H480L354 686Q344 628 337 570T330 458Q330 369 353 298T433 186T590 144Q702 144 777 194T900 325T975 501T1018 686L1144 1400H1334L1192 594Q1158
402 1077 263T866 48T560 -28ZM688 1570L712 1706L1078 1914L1044 1692L688 1570Z" />
<glyph unicode="&#xdb;" horiz-adv-x="1336" d="M560 -28Q341 -28 236 87T130 408Q130 441 134 493T148 594L290 1400H480L354 686Q344 628 337 570T330 458Q330 369 353 298T433 186T590 144Q702 144 777 194T900 325T975 501T1018 686L1144 1400H1334L1192 594Q1158
402 1077 263T866 48T560 -28ZM632 1568L662 1696L918 1890L1128 1670L1104 1548L882 1708L632 1568Z" />
<glyph unicode="&#xdc;" horiz-adv-x="1336" d="M560 -28Q341 -28 236 87T130 408Q130 441 134 493T148 594L290 1400H480L354 686Q344 628 337 570T330 458Q330 369 353 298T433 186T590 144Q702 144 777 194T900 325T975 501T1018 686L1144 1400H1334L1192 594Q1158
402 1077 263T866 48T560 -28ZM590 1602L622 1762H790L758 1602H590ZM962 1602L994 1762H1162L1130 1602H962Z" />
<glyph unicode="&#xdd;" horiz-adv-x="1092" d="M338 0L467 730L483 566L156 1400H356L615 738L534 749L1008 1400H1208L597 577L663 730L534 0H338ZM548 1570L572 1706L938 1914L904 1692L548 1570Z" />
<glyph unicode="&#xde;" horiz-adv-x="1034" d="M40 0L288 1400H484L236 0H40ZM238 382L268 552H590Q715 552 784 608T854 766Q854 816 832 850T765 902T654 920H332L362 1090H698Q874 1090 964 1013T1054 798Q1054 668 995 575T827 432T574 382H238Z" />
<glyph unicode="&#xdf;" horiz-adv-x="1106" d="M564 -28Q503 -28 450 -22T340 0L364 160Q415 147 467 140T578 132Q682 132 756 179T830 316Q830 375 802 416T732 489T649 552T579 624T550 722Q550 794 607 862T756 1013Q811 1063 845 1111T878 1230Q877 1295
832 1331T706 1368Q586 1368 514 1298T420 1104L226 0H44L192 840H48L88 980H216L237 1100Q262 1244 334 1339T511 1481T740 1528Q889 1528 973 1456T1058 1270Q1058 1165 1019 1099T902 958Q818 877 779 836T740 750Q740 711 767 679T836 614T918 544T987 456T1016
338Q1017 253 981 186T882 71T738 -2T564 -28Z" />
<glyph unicode="&#xe0;" horiz-adv-x="1080" d="M368 -20Q269 -20 196 29T82 166T42 372Q42 491 80 603T187 804T351 947T558 1000Q608 1000 659 985T751 928T812 802L757 796L824 980H984L866 286Q858 240 858 208Q858 160 879 142T952 124L902 -20Q851 -20 809
-15T736 12T686 82T665 218L711 173Q669 111 617 68T502 2T368 -20ZM428 140Q485 140 540 166T642 245T715 375T742 554Q742 704 684 772T538 840Q450 840 381 780T271 622T230 410Q230 298 276 219T428 140ZM848 1152L518 1290L552 1486L870 1274L848 1152Z" />
<glyph unicode="&#xe1;" horiz-adv-x="1080" d="M368 -20Q269 -20 196 29T82 166T42 372Q42 491 80 603T187 804T351 947T558 1000Q608 1000 659 985T751 928T812 802L757 796L824 980H984L866 286Q858 240 858 208Q858 160 879 142T952 124L902 -20Q851 -20 809
-15T736 12T686 82T665 218L711 173Q669 111 617 68T502 2T368 -20ZM428 140Q485 140 540 166T642 245T715 375T742 554Q742 704 684 772T538 840Q450 840 381 780T271 622T230 410Q230 298 276 219T428 140ZM508 1150L532 1286L898 1494L864 1272L508 1150Z" />
<glyph unicode="&#xe2;" horiz-adv-x="1080" d="M368 -20Q269 -20 196 29T82 166T42 372Q42 491 80 603T187 804T351 947T558 1000Q608 1000 659 985T751 928T812 802L757 796L824 980H984L866 286Q858 240 858 208Q858 160 879 142T952 124L902 -20Q851 -20 809
-15T736 12T686 82T665 218L711 173Q669 111 617 68T502 2T368 -20ZM428 140Q485 140 540 166T642 245T715 375T742 554Q742 704 684 772T538 840Q450 840 381 780T271 622T230 410Q230 298 276 219T428 140ZM452 1148L482 1276L738 1470L948 1250L924 1128L702
1288L452 1148Z" />
<glyph unicode="&#xe3;" horiz-adv-x="1080" d="M368 -20Q269 -20 196 29T82 166T42 372Q42 491 80 603T187 804T351 947T558 1000Q608 1000 659 985T751 928T812 802L757 796L824 980H984L866 286Q858 240 858 208Q858 160 879 142T952 124L902 -20Q851 -20 809
-15T736 12T686 82T665 218L711 173Q669 111 617 68T502 2T368 -20ZM428 140Q485 140 540 166T642 245T715 375T742 554Q742 704 684 772T538 840Q450 840 381 780T271 622T230 410Q230 298 276 219T428 140ZM834 1160Q791 1160 747 1182T660 1226T582 1248Q551
1248 533 1229T506 1176H362Q388 1284 440 1341T572 1398Q618 1398 658 1376T738 1332T818 1310Q850 1310 868 1329T894 1388H1038Q1011 1268 961 1214T834 1160Z" />
<glyph unicode="&#xe4;" horiz-adv-x="1080" d="M368 -20Q269 -20 196 29T82 166T42 372Q42 491 80 603T187 804T351 947T558 1000Q608 1000 659 985T751 928T812 802L757 796L824 980H984L866 286Q858 240 858 208Q858 160 879 142T952 124L902 -20Q851 -20 809
-15T736 12T686 82T665 218L711 173Q669 111 617 68T502 2T368 -20ZM428 140Q485 140 540 166T642 245T715 375T742 554Q742 704 684 772T538 840Q450 840 381 780T271 622T230 410Q230 298 276 219T428 140ZM410 1182L442 1342H610L578 1182H410ZM782 1182L814
1342H982L950 1182H782Z" />
<glyph unicode="&#xe5;" horiz-adv-x="1080" d="M368 -20Q269 -20 196 29T82 166T42 372Q42 491 80 603T187 804T351 947T558 1000Q608 1000 659 985T751 928T812 802L757 796L824 980H984L866 286Q858 240 858 208Q858 160 879 142T952 124L902 -20Q851 -20 809
-15T736 12T686 82T665 218L711 173Q669 111 617 68T502 2T368 -20ZM428 140Q485 140 540 166T642 245T715 375T742 554Q742 704 684 772T538 840Q450 840 381 780T271 622T230 410Q230 298 276 219T428 140ZM670 1136Q583 1136 540 1183T496 1294Q496 1361 529
1416T619 1503T742 1536Q829 1536 872 1490T916 1378Q916 1311 884 1256T796 1169T670 1136ZM684 1224Q735 1224 773 1264T812 1358Q812 1399 788 1423T728 1448Q677 1448 639 1407T600 1312Q600 1270 625 1247T684 1224Z" />
<glyph unicode="&#xe6;" horiz-adv-x="1456" d="M604 490Q539 492 465 479T325 435T218 353T176 224Q176 170 208 147T288 124Q341 124 399 150T503 237T566 397Q571 427 574 446T580 484T584 531T590 609Q595 730 564 785T430 840Q372 840 316 826T192 782L200
922Q284 961 362 980T510 1000Q553 1000 600 987T686 939T741 836T738 659L724 690Q756 806 818 874T960 971T1120 1000Q1252 1000 1329 919T1406 686Q1406 628 1395 582T1368 490H698L732 614H1230Q1235 637 1236 660T1238 696Q1237 771 1198 805T1078 840Q1000
840 942 800T844 693T786 549T766 396Q766 305 795 245T875 154T994 124Q1037 124 1079 133T1166 158T1260 198V60Q1193 27 1118 4T950 -20Q802 -20 717 47T618 275L659 263Q614 166 547 102T398 5T222 -28Q102 -28 43 30T-16 186Q-16 292 26 365T137 486T289 560T457
599T611 615L604 490Z" />
<glyph unicode="&#xe7;" horiz-adv-x="836" d="M420 -20Q285 -20 203 36T84 187T46 398Q46 515 81 623T185 816T358 950T598 1000Q673 1000 739 985T846 942L794 780Q749 809 700 824T598 840Q476 840 395 784T273 634T232 424Q232 289 292 214T478 138Q580 138
694 198L688 44Q643 20 576 0T420 -20ZM400 -158L340 -128Q366 -119 389 -114T440 -108Q511 -108 550 -143T590 -240Q590 -333 519 -392T342 -452Q291 -452 255 -441T192 -414L240 -316Q267 -332 296 -341T360 -350Q413 -350 442 -325T472 -262Q472 -194 384 -194Q362
-194 339 -197T288 -210L378 0H478L400 -158Z" />
<glyph unicode="&#xe8;" horiz-adv-x="916" d="M220 575Q262 559 301 551T396 542Q516 542 582 572T675 645T702 728Q702 768 683 792T630 828T558 840Q491 840 431 806T321 698T239 509L238 499Q227 356 258 278T350 170T490 140Q549 140 622 154T760 198L752
56Q695 23 617 2T442 -20Q306 -20 218 36T86 189T42 404Q42 520 80 627T189 818T358 951T576 1000Q719 1000 793 931T868 750Q868 695 846 637T772 530T632 450T412 420Q353 420 296 427T204 448L220 575ZM800 1152L470 1290L504 1486L822 1274L800 1152Z" />
<glyph unicode="&#xe9;" horiz-adv-x="916" d="M220 575Q262 559 301 551T396 542Q516 542 582 572T675 645T702 728Q702 768 683 792T630 828T558 840Q491 840 431 806T321 698T239 509L238 499Q227 356 258 278T350 170T490 140Q549 140 622 154T760 198L752
56Q695 23 617 2T442 -20Q306 -20 218 36T86 189T42 404Q42 520 80 627T189 818T358 951T576 1000Q719 1000 793 931T868 750Q868 695 846 637T772 530T632 450T412 420Q353 420 296 427T204 448L220 575ZM460 1150L484 1286L850 1494L816 1272L460 1150Z" />
<glyph unicode="&#xea;" horiz-adv-x="916" d="M220 575Q262 559 301 551T396 542Q516 542 582 572T675 645T702 728Q702 768 683 792T630 828T558 840Q491 840 431 806T321 698T239 509L238 499Q227 356 258 278T350 170T490 140Q549 140 622 154T760 198L752
56Q695 23 617 2T442 -20Q306 -20 218 36T86 189T42 404Q42 520 80 627T189 818T358 951T576 1000Q719 1000 793 931T868 750Q868 695 846 637T772 530T632 450T412 420Q353 420 296 427T204 448L220 575ZM404 1148L434 1276L690 1470L900 1250L876 1128L654 1288L404
1148Z" />
<glyph unicode="&#xeb;" horiz-adv-x="916" d="M220 575Q262 559 301 551T396 542Q516 542 582 572T675 645T702 728Q702 768 683 792T630 828T558 840Q491 840 431 806T321 698T239 509L238 499Q227 356 258 278T350 170T490 140Q549 140 622 154T760 198L752
56Q695 23 617 2T442 -20Q306 -20 218 36T86 189T42 404Q42 520 80 627T189 818T358 951T576 1000Q719 1000 793 931T868 750Q868 695 846 637T772 530T632 450T412 420Q353 420 296 427T204 448L220 575ZM362 1182L394 1342H562L530 1182H362ZM734 1182L766 1342H934L902
1182H734Z" />
<glyph unicode="&#xec;" horiz-adv-x="428" d="M20 0L192 980H374L202 0H20ZM490 1152L160 1290L194 1486L512 1274L490 1152Z" />
<glyph unicode="&#xed;" horiz-adv-x="428" d="M20 0L192 980H374L202 0H20ZM150 1150L174 1286L540 1494L506 1272L150 1150Z" />
<glyph unicode="&#xee;" horiz-adv-x="428" d="M20 0L192 980H374L202 0H20ZM94 1148L124 1276L380 1470L590 1250L566 1128L344 1288L94 1148Z" />
<glyph unicode="&#xef;" horiz-adv-x="428" d="M20 0L192 980H374L202 0H20ZM308 1182L340 1342H508L476 1182H308ZM680 1182L712 1342H880L848 1182H680Z" />
<glyph unicode="&#xf0;" horiz-adv-x="974" d="M378 -24Q262 -24 182 24T61 154T20 340Q20 478 78 594T238 781T470 852Q547 852 597 827T676 770T719 714L698 674Q709 829 673 954T560 1171T370 1318L434 1402Q577 1354 678 1252T832 1005T886 684Q886 465 819
307T636 62T378 -24ZM394 142Q466 142 524 186T617 306T652 476Q652 569 610 627T484 686Q404 686 343 643T248 527T214 368Q214 274 259 208T394 142ZM358 1010L306 1122L862 1358L912 1246L358 1010Z" />
<glyph unicode="&#xf1;" horiz-adv-x="1030" d="M20 0L192 980H346L332 733L202 0H20ZM632 0Q663 176 683 292T715 477T732 583T738 636T740 662Q740 754 700 797T572 840Q495 840 429 806T319 697L325 861Q408 946 482 973T632 1000Q788 1000 856 918T924 686Q924
673 923 654T916 596T899 485T867 296T814 0H632ZM794 1160Q751 1160 707 1182T620 1226T542 1248Q511 1248 493 1229T466 1176H322Q348 1284 400 1341T532 1398Q578 1398 618 1376T698 1332T778 1310Q810 1310 828 1329T854 1388H998Q971 1268 921 1214T794 1160Z"
/>
<glyph unicode="&#xf2;" horiz-adv-x="1028" d="M412 -20Q287 -20 205 34T83 183T42 394Q42 515 81 624T193 817T363 951T580 1000Q705 1000 787 945T909 796T950 584Q950 464 911 356T799 162T629 29T412 -20ZM438 140Q538 140 611 198T724 353T764 570Q764 705
711 772T554 840Q454 840 381 782T268 627T228 410Q228 277 280 209T438 140ZM792 1152L462 1290L496 1486L814 1274L792 1152Z" />
<glyph unicode="&#xf3;" horiz-adv-x="1028" d="M412 -20Q287 -20 205 34T83 183T42 394Q42 515 81 624T193 817T363 951T580 1000Q705 1000 787 945T909 796T950 584Q950 464 911 356T799 162T629 29T412 -20ZM438 140Q538 140 611 198T724 353T764 570Q764 705
711 772T554 840Q454 840 381 782T268 627T228 410Q228 277 280 209T438 140ZM452 1150L476 1286L842 1494L808 1272L452 1150Z" />
<glyph unicode="&#xf4;" horiz-adv-x="1028" d="M412 -20Q287 -20 205 34T83 183T42 394Q42 515 81 624T193 817T363 951T580 1000Q705 1000 787 945T909 796T950 584Q950 464 911 356T799 162T629 29T412 -20ZM438 140Q538 140 611 198T724 353T764 570Q764 705
711 772T554 840Q454 840 381 782T268 627T228 410Q228 277 280 209T438 140ZM396 1148L426 1276L682 1470L892 1250L868 1128L646 1288L396 1148Z" />
<glyph unicode="&#xf5;" horiz-adv-x="1028" d="M412 -20Q287 -20 205 34T83 183T42 394Q42 515 81 624T193 817T363 951T580 1000Q705 1000 787 945T909 796T950 584Q950 464 911 356T799 162T629 29T412 -20ZM438 140Q538 140 611 198T724 353T764 570Q764 705
711 772T554 840Q454 840 381 782T268 627T228 410Q228 277 280 209T438 140ZM778 1160Q735 1160 691 1182T604 1226T526 1248Q495 1248 477 1229T450 1176H306Q332 1284 384 1341T516 1398Q562 1398 602 1376T682 1332T762 1310Q794 1310 812 1329T838 1388H982Q955
1268 905 1214T778 1160Z" />
<glyph unicode="&#xf6;" horiz-adv-x="1028" d="M412 -20Q287 -20 205 34T83 183T42 394Q42 515 81 624T193 817T363 951T580 1000Q705 1000 787 945T909 796T950 584Q950 464 911 356T799 162T629 29T412 -20ZM438 140Q538 140 611 198T724 353T764 570Q764 705
711 772T554 840Q454 840 381 782T268 627T228 410Q228 277 280 209T438 140ZM354 1182L386 1342H554L522 1182H354ZM726 1182L758 1342H926L894 1182H726Z" />
<glyph unicode="&#xf7;" horiz-adv-x="924" d="M20 486L48 638H808L780 486H20ZM238 118L272 318H464L430 118H238ZM360 806L394 1006H586L552 806H360Z" />
<glyph unicode="&#xf8;" horiz-adv-x="1028" d="M852 1060H1012L140 -80H-20L852 1060ZM412 -20Q287 -20 205 34T83 183T42 394Q42 515 81 624T193 817T363 951T580 1000Q705 1000 787 945T909 796T950 584Q950 464 911 356T799 162T629 29T412 -20ZM438 140Q538
140 611 198T724 353T764 570Q764 705 711 772T554 840Q454 840 381 782T268 627T228 410Q228 277 280 209T438 140Z" />
<glyph unicode="&#xf9;" horiz-adv-x="988" d="M340 -20Q210 -20 139 55T68 268Q68 291 72 323T84 404L182 980H364L270 432Q263 393 261 366T258 324Q258 140 414 140Q476 140 534 170T635 268L612 120Q562 59 496 20T340 -20ZM596 0L604 136L752 980H934L762
0H596ZM764 1152L434 1290L468 1486L786 1274L764 1152Z" />
<glyph unicode="&#xfa;" horiz-adv-x="988" d="M340 -20Q210 -20 139 55T68 268Q68 291 72 323T84 404L182 980H364L270 432Q263 393 261 366T258 324Q258 140 414 140Q476 140 534 170T635 268L612 120Q562 59 496 20T340 -20ZM596 0L604 136L752 980H934L762
0H596ZM424 1150L448 1286L814 1494L780 1272L424 1150Z" />
<glyph unicode="&#xfb;" horiz-adv-x="988" d="M340 -20Q210 -20 139 55T68 268Q68 291 72 323T84 404L182 980H364L270 432Q263 393 261 366T258 324Q258 140 414 140Q476 140 534 170T635 268L612 120Q562 59 496 20T340 -20ZM596 0L604 136L752 980H934L762
0H596ZM368 1148L398 1276L654 1470L864 1250L840 1128L618 1288L368 1148Z" />
<glyph unicode="&#xfc;" horiz-adv-x="988" d="M340 -20Q210 -20 139 55T68 268Q68 291 72 323T84 404L182 980H364L270 432Q263 393 261 366T258 324Q258 140 414 140Q476 140 534 170T635 268L612 120Q562 59 496 20T340 -20ZM596 0L604 136L752 980H934L762
0H596ZM326 1182L358 1342H526L494 1182H326ZM698 1182L730 1342H898L866 1182H698Z" />
<glyph unicode="&#xfd;" horiz-adv-x="918" d="M-26 -484L312 119L288 -40L64 980H266L415 168L361 176L772 980H974L168 -484H-26ZM386 1150L410 1286L776 1494L742 1272L386 1150Z" />
<glyph unicode="&#xfe;" horiz-adv-x="1044" d="M-66 -484L284 1500H466L339 800L315 841Q377 917 457 958T640 1000Q749 1000 821 944T928 794T964 586Q964 470 928 362T827 167T671 31T472 -20Q376 -20 304 28T195 188L237 208L116 -484H-66ZM462 140Q554 140
625 201T736 362T776 574Q776 691 729 765T584 840Q505 840 433 789T314 642T268 412Q268 265 324 203T462 140Z" />
<glyph unicode="&#xff;" horiz-adv-x="918" d="M-26 -484L312 119L288 -40L64 980H266L415 168L361 176L772 980H974L168 -484H-26ZM288 1182L320 1342H488L456 1182H288ZM660 1182L692 1342H860L828 1182H660Z" />
<glyph unicode="&#x2013;" horiz-adv-x="1232" d="M0 536L30 708H1232L1202 536H0Z" />
<glyph unicode="&#x2014;" horiz-adv-x="1382" d="M0 536L30 708H1382L1352 536H0Z" />
<glyph unicode="&#x2018;" horiz-adv-x="374" d="M340 1400H454L344 1186H414L376 974H160L194 1166L340 1400Z" />
<glyph unicode="&#x2019;" horiz-adv-x="334" d="M234 974H120L230 1188H160L198 1400H414L380 1208L234 974Z" />
<glyph unicode="&#x201a;" horiz-adv-x="374" d="M54 -214H-60L50 0H-20L18 212H234L200 20L54 -214Z" />
<glyph unicode="&#x201c;" horiz-adv-x="694" d="M340 1400H454L344 1186H414L376 974H160L194 1166L340 1400ZM660 1400H774L664 1186H734L696 974H480L514 1166L660 1400Z" />
<glyph unicode="&#x201d;" horiz-adv-x="654" d="M234 974H120L230 1188H160L198 1400H414L380 1208L234 974ZM554 974H440L550 1188H480L518 1400H734L700 1208L554 974Z" />
<glyph unicode="&#x201e;" horiz-adv-x="694" d="M54 -214H-60L50 0H-20L18 212H234L200 20L54 -214ZM374 -214H260L370 0H300L338 212H554L520 20L374 -214Z" />
<glyph unicode="&#x2022;" horiz-adv-x="574" d="M242 338Q170 338 125 392T80 522Q80 590 113 647T201 739T318 774Q390 774 435 721T480 590Q480 522 447 465T359 373T242 338Z" />
<glyph unicode="&#x2039;" horiz-adv-x="618" d="M244 156L34 568L388 980H606L196 503L213 644L462 156H244Z" />
<glyph unicode="&#x203a;" horiz-adv-x="620" d="M6 156L416 633L399 492L152 980H370L578 568L224 156H6Z" />
</font>
</defs>
</svg>
